<svg width="937" height="197" viewBox="0 0 937 197" fill="none" xmlns="http://www.w3.org/2000/svg">
<path d="M4.35982 39.1462C4.77198 38.022 5.50416 35.7681 6.02872 33.8751C6.61999 31.7413 7.33532 30.0084 7.96998 28.382C8.79001 26.2806 9.97676 22.1032 11.4807 18.3657C13.2653 13.9307 14.3932 11.6258 15.837 8.8452C17.0162 6.57413 18.4915 4.77256 19.9709 4.08585C21.2626 3.48625 22.3185 6.30715 23.8266 7.55844C25.6525 9.07351 28.2327 10.8902 30.7201 12.8605C34.0388 15.4893 37.7289 19.6864 39.1543 21.1613C40.9807 23.0512 43.3703 26.1108 44.6904 27.7689C45.0303 28.1959 45.3718 28.5853 45.4744 28.9864C45.8893 30.6091 43.3334 32.0868 41.5498 33.546C40.1739 34.6716 38.9903 36.4153 34.8501 40.1718C32.8271 42.0073 31.2835 43.2888 30.2289 44.689C29.7347 45.3452 29.0219 45.9358 27.8401 46.2614C22.9091 47.6203 17.6366 43.0646 14.6421 42.0222C10.2597 40.7502 8.76986 40.3506 7.43735 39.6881C7.09024 39.4604 6.70703 39.1667 5.68346 38.2611" stroke="#F3EFE9" stroke-width="8" stroke-linecap="round"/>
<path d="M18.4824 6.03613C20.0537 9.4172 20.8352 11.4758 21.6659 13.9259C22.321 15.8583 23.0025 17.9271 23.9242 20.0715C24.7991 22.1068 25.7354 24.9012 26.2992 27.0729C26.8165 29.0657 27.0415 31.2012 27.4449 33.2399C27.6564 34.2289 27.8261 35.1753 27.9632 36.1334C28.0379 36.6416 28.1231 37.1947 28.3543 38.8132" stroke="#F3EFE9" stroke-width="8" stroke-linecap="round"/>
<path d="M4.17903 39.5091C4.18652 39.9684 4.13513 40.9628 4.07787 41.9096C4.01282 42.9854 3.97998 44.0711 4.01351 45.7692C4.09299 49.7945 4.48433 50.9373 5.0459 53.8743C5.38986 55.6731 5.63694 56.7168 5.9307 57.6755C6.09574 58.2142 6.33141 61.4203 6.67445 66.2901C6.8856 69.2875 7.06314 70.7935 7.28961 73.7084C7.47937 76.1508 7.77809 80.5527 7.93294 82.9557C8.10522 85.6293 8.06789 86.3516 8.08644 88.4105C8.15494 96.0112 8.1318 97.4415 8.13522 98.7541C8.13858 100.047 8.33239 103.626 8.69112 108.149C8.87641 110.485 9.18329 113.821 9.21165 116.996C9.22232 118.191 9.32503 119.37 9.37666 120.571C9.4261 121.721 9.59994 124.606 9.83779 128.299C10.0214 131.15 10.515 133.81 10.8845 135.677C11.2844 137.697 11.3687 139.739 11.5309 140.924C11.8493 143.249 11.9255 145.024 12.2863 149.633C12.4686 152.471 12.6222 154.234 12.7504 154.747C12.8141 154.992 12.8752 155.209 13.0884 155.575" stroke="#F3EFE9" stroke-width="8" stroke-linecap="round"/>
<path d="M45.7978 30.069C45.7487 30.3955 45.6734 31.3905 45.6996 32.8415C45.7581 36.0899 45.7973 37.3218 45.7743 38.6025C45.7533 39.7736 45.894 42.0487 46.048 43.7217C46.1467 44.7937 46.402 45.9299 46.5634 47.6994C46.8168 50.4771 46.9952 54.5728 47.1272 58.1252C47.1852 59.6848 47.2896 62.4051 47.5197 66.742C47.6199 68.6301 47.6507 69.8845 48.07 78.9649C48.4894 88.0452 49.2874 104.914 49.6926 113.915C50.0978 122.916 50.0862 123.538 50.0978 124.119C50.1371 126.084 50.2237 127.402 50.258 128.909C50.3115 131.256 50.2451 133.582 50.1321 135.43C50.0061 137.491 49.9956 138.574 50.1135 140.764C50.1762 141.926 50.3597 142.933 50.3539 144.048C50.3489 145.022 50.3427 146.018 50.3251 147.226C50.3072 148.462 50.7067 149.231 51.0202 150.294C51.1497 150.734 51.1292 151.469 51.0815 151.898C50.9618 152.975 50.1941 153.444 49.7734 154.09C49.2656 154.869 48.6429 156.071 47.5378 157.8C46.768 159.004 46.223 160.729 45.413 162.3C44.0969 164.854 43.6044 166.174 42.7438 167.886C42.3905 168.588 42.1456 169.177 41.5356 170.407C40.1694 173.163 39.0835 175.097 38.2692 176.613C34.8262 183.02 34.4208 184.031 33.9559 184.85C33.6032 185.47 33.2628 186.03 33.0264 186.243C32.7946 186.451 31.0907 183.34 28.0126 178.665C25.2066 174.403 23.5188 172.476 23.0353 171.431C20.9175 166.854 19.8334 164.857 18.9746 163.39C18.292 162.26 17.7502 161.604 16.637 160.216C16.3269 159.861 16.0526 159.606 15.731 159.294" stroke="#F3EFE9" stroke-width="8" stroke-linecap="round"/>
<path d="M28.2822 48.9363C28.3177 49.461 28.3583 50.7579 28.3422 51.8716C28.3272 52.905 28.4199 54.8365 28.5353 56.9881C28.6026 58.2437 28.9995 60.0448 29.5208 62.8991C29.708 63.9237 29.8133 65.3324 30.1433 68.5799C30.4732 71.8273 30.985 76.8817 31.3834 81.3113C31.7818 85.741 32.0513 89.3927 32.1957 91.4431C32.3639 93.8309 32.3407 94.7167 32.2967 96.6874C32.1376 103.814 32.219 106.39 32.2402 107.569C32.2661 109.005 32.2198 110.717 32.2528 114.271C32.2703 116.155 32.5187 119.313 32.6619 121.751C32.8052 124.188 32.8994 125.812 33.3366 131.241C33.7739 136.671 34.5513 145.857 34.9832 151.503C35.4151 157.15 35.4779 158.979 35.5045 160.232C35.4827 163.014 35.4195 165.084 35.2386 168.889C35.071 171.161 34.7495 174.126 34.4034 177.49" stroke="#F3EFE9" stroke-width="8" stroke-linecap="round"/>
<path d="M15.6585 155.378C15.9105 155.126 16.7028 154.342 18.8272 152.079C20.1732 150.646 22.4913 148.019 23.9933 146.127C25.4953 144.235 26.0935 143.123 27.4999 141.252C28.9063 139.381 31.1028 136.784 33.5473 133.837" stroke="#F3EFE9" stroke-width="8" stroke-linecap="round"/>
<path d="M51.8631 150.584C51.5814 150.323 50.9636 149.735 48.5857 146.935C46.7922 144.824 45.3631 143.856 44.673 143.214C43.597 142.212 42.4255 140.765 41.3901 139.673C40.3862 138.615 39.7851 138.626 39.2879 138.179C38.8677 137.801 38.2434 137.289 37.8262 136.847C37.7398 136.756 37.6439 136.67 37.5133 136.54C37.3827 136.41 37.2202 136.237 36.9297 135.933" stroke="#F3EFE9" stroke-width="8" stroke-linecap="round"/>
<path d="M79.539 71.8466C80.1046 71.0932 81.1458 69.5686 81.9309 68.2746C82.8159 66.816 83.7669 65.6666 84.6232 64.5824C85.7296 63.1816 87.491 60.3304 89.5037 57.8457C91.892 54.8973 93.3311 53.395 95.1494 51.5951C96.6345 50.125 98.3457 49.0397 99.9037 48.7633C101.264 48.522 101.909 50.7255 103.222 51.8587C104.812 53.2307 107.104 54.9343 109.282 56.7355C112.189 59.1386 115.242 62.7344 116.442 64.0173C117.979 65.6612 119.907 68.2375 120.977 69.6375C121.253 69.998 121.535 70.3315 121.58 70.6377C121.761 71.8764 119.028 72.5651 117.06 73.3559C115.543 73.966 114.128 75.053 109.509 77.1567C107.252 78.1846 105.546 78.8826 104.307 79.7399C103.726 80.1417 102.939 80.4631 101.726 80.5223C96.664 80.7691 92.0992 76.6761 89.2887 75.4719C85.1398 73.8932 83.7247 73.3804 82.5021 72.7004C82.1914 72.4833 81.8543 72.213 80.9711 71.403" stroke="#F3EFE9" stroke-width="8" stroke-linecap="round"/>
<path d="M98.1582 49.9546C99.2331 52.6414 99.7146 54.2511 100.189 56.152C100.564 57.6513 100.945 59.2534 101.553 60.9463C102.13 62.553 102.66 64.7194 102.911 66.3785C103.141 67.9009 103.062 69.483 103.172 71.0216C103.242 71.7704 103.276 72.482 103.276 73.1972C103.278 73.5769 103.284 73.9907 103.284 75.1989" stroke="#F3EFE9" stroke-width="8" stroke-linecap="round"/>
<path d="M79.3091 72.083C79.2517 72.4171 79.0606 73.1305 78.8705 73.8084C78.6545 74.5787 78.4689 75.361 78.2624 76.5973C77.773 79.5278 77.9983 80.415 78.1387 82.6286C78.2246 83.9845 78.3214 84.7782 78.4763 85.5173C78.5633 85.9326 78.3437 88.2926 77.9955 91.8749C77.7812 94.0799 77.7441 95.1985 77.5565 97.3459C77.3994 99.1452 77.0734 102.382 76.8873 104.147C76.6803 106.112 76.5415 106.63 76.2694 108.125C75.2648 113.647 75.0401 114.68 74.8583 115.633C74.6792 116.571 74.3658 119.194 74.082 122.528C73.9354 124.249 73.7678 126.714 73.3479 129.021C73.1899 129.888 73.125 130.759 73.0066 131.637C72.8932 132.479 72.6579 134.596 72.3718 137.31C72.1509 139.405 72.2631 141.407 72.3648 142.816C72.4748 144.34 72.2698 145.834 72.2629 146.717C72.2494 148.451 72.0742 149.749 71.7804 153.145C71.56 155.23 71.463 156.532 71.5173 156.922C71.5456 157.11 71.5754 157.276 71.7343 157.574" stroke="#F3EFE9" stroke-width="8" stroke-linecap="round"/>
<path d="M121.747 71.4713C121.652 71.7007 121.438 72.4109 121.259 73.4669C120.858 75.831 120.723 76.73 120.52 77.6552C120.334 78.5012 120.152 80.1719 120.068 81.408C120.014 82.2 120.106 83.0621 120.016 84.3693C119.874 86.4213 119.473 89.4177 119.102 92.0132C118.939 93.1527 118.658 95.1408 118.274 98.3198C118.106 99.7038 117.96 100.618 117.093 107.265C116.226 113.911 114.634 126.262 113.765 132.849C112.895 139.436 112.796 139.885 112.725 140.308C112.487 141.739 112.387 142.708 112.208 143.805C111.93 145.515 111.536 147.192 111.164 148.515C110.748 149.99 110.585 150.774 110.393 152.379C110.291 153.232 110.33 153.989 110.167 154.797C110.024 155.502 109.878 156.223 109.69 157.097C109.498 157.991 109.784 158.607 109.944 159.426C110.01 159.764 109.886 160.293 109.778 160.598C109.508 161.361 108.684 161.586 108.177 161.991C107.565 162.48 106.781 163.258 105.445 164.346C104.515 165.104 103.734 166.273 102.712 167.291C101.052 168.945 100.379 169.829 99.2876 170.941C98.8396 171.398 98.5146 171.788 97.7386 172.589C96.0005 174.382 94.6551 175.622 93.637 176.599C89.3326 180.729 88.7895 181.401 88.2148 181.925C87.7789 182.322 87.3639 182.677 87.1003 182.796C86.842 182.913 85.598 180.401 83.2174 176.55C81.0473 173.04 79.6522 171.39 79.3221 170.56C77.8761 166.924 77.0871 165.314 76.4458 164.121C75.931 163.2 75.4885 162.643 74.5848 161.47C74.3286 161.166 74.0937 160.94 73.8201 160.666" stroke="#F3EFE9" stroke-width="8" stroke-linecap="round"/>
<path d="M101.785 82.5279C101.746 82.9136 101.603 83.8601 101.43 84.6652C101.269 85.4122 101.088 86.8266 100.899 88.404C100.788 89.3245 100.926 90.6898 101.038 92.8375C101.079 93.6084 100.984 94.6456 100.852 97.0497C100.719 99.4537 100.512 103.195 100.28 106.467C100.049 109.738 99.8 112.426 99.6533 113.935C99.4825 115.691 99.3347 116.33 99.0132 117.752C97.8507 122.896 97.5676 124.776 97.4223 125.633C97.2451 126.679 96.958 127.913 96.4892 130.495C96.2407 131.864 96.0405 134.19 95.8381 135.98C95.6357 137.769 95.4996 138.96 95.1655 142.962C94.8314 146.964 94.3033 153.741 93.9333 157.9C93.5632 162.059 93.3673 163.394 93.2167 164.307C92.8028 166.321 92.4482 167.813 91.7328 170.544C91.2468 172.166 90.5109 174.268 89.6946 176.655" stroke="#F3EFE9" stroke-width="8" stroke-linecap="round"/>
<path d="M74.301 157.816C74.5856 157.671 75.4788 157.221 77.8961 155.899C79.4277 155.061 82.0878 153.504 83.8382 152.357C85.5887 151.209 86.3363 150.493 87.9893 149.347C89.6424 148.201 92.1781 146.647 95.0083 144.876" stroke="#F3EFE9" stroke-width="8" stroke-linecap="round"/>
<path d="M110.735 159.762C110.494 159.53 109.966 159.011 108.013 156.625C106.539 154.826 105.264 153.91 104.673 153.341C103.752 152.453 102.799 151.229 101.93 150.282C101.088 149.365 100.493 149.282 100.065 148.884C99.7033 148.547 99.1588 148.082 98.8092 147.699C98.7367 147.62 98.6541 147.544 98.5434 147.43C98.4328 147.316 98.2968 147.166 98.0527 146.902" stroke="#F3EFE9" stroke-width="8" stroke-linecap="round"/>
<path d="M139.652 102.293C140.066 101.627 140.802 100.298 141.331 99.1893C141.926 97.9392 142.644 96.9061 143.281 95.9394C144.104 94.6902 145.3 92.2406 146.809 90.0154C148.6 87.375 149.731 85.9876 151.177 84.3074C152.359 82.9352 153.833 81.8058 155.308 81.3057C156.596 80.8691 157.638 82.3825 159.135 82.975C160.948 83.6923 163.511 84.5229 165.981 85.4473C169.276 86.6806 172.936 88.7716 174.351 89.4967C176.163 90.4258 178.532 91.9729 179.84 92.8094C180.178 93.0248 180.516 93.2189 180.617 93.4377C181.025 94.3228 178.475 95.3513 176.695 96.3107C175.322 97.0508 174.137 98.1255 170.003 100.561C167.983 101.751 166.442 102.592 165.388 103.463C164.894 103.871 164.182 104.259 163.005 104.532C158.091 105.674 152.857 103.5 149.879 103.138C145.52 102.752 144.038 102.639 142.714 102.366C142.369 102.264 141.989 102.127 140.973 101.693" stroke="#F3EFE9" stroke-width="8" stroke-linecap="round"/>
<path d="M153.82 82.52C155.374 84.3107 156.145 85.4143 156.964 86.7353C157.61 87.7772 158.281 88.8941 159.192 90.0355C160.056 91.1188 160.979 92.6263 161.534 93.8103C162.042 94.8967 162.259 96.0859 162.654 97.2069C162.861 97.7495 163.027 98.2712 163.161 98.802C163.233 99.0834 163.316 99.3894 163.541 100.286" stroke="#F3EFE9" stroke-width="8" stroke-linecap="round"/>
<path d="M139.471 102.512C139.477 102.771 139.423 103.336 139.363 103.876C139.294 104.488 139.258 105.104 139.286 106.061C139.352 108.328 139.738 108.944 140.287 110.56C140.624 111.551 140.866 112.121 141.156 112.641C141.318 112.932 141.542 114.726 141.868 117.45C142.068 119.127 142.24 119.965 142.456 121.594C142.637 122.959 142.92 125.423 143.066 126.769C143.229 128.266 143.19 128.677 143.201 129.838C143.245 134.126 143.217 134.936 143.216 135.677C143.215 136.407 143.397 138.414 143.739 140.942C143.916 142.247 144.21 144.109 144.228 145.9C144.235 146.574 144.333 147.232 144.381 147.906C144.426 148.552 144.59 150.168 144.815 152.237C144.988 153.833 145.471 155.299 145.833 156.325C146.224 157.435 146.301 158.583 146.459 159.239C146.768 160.529 146.838 161.526 147.183 164.102C147.355 165.691 147.502 166.675 147.628 166.955C147.691 167.089 147.751 167.207 147.962 167.398" stroke="#F3EFE9" stroke-width="8" stroke-linecap="round"/>
<path d="M180.935 94.0244C180.886 94.2125 180.807 94.7803 180.829 95.5979C180.876 97.4284 180.911 98.1212 180.884 98.8464C180.859 99.5095 180.992 100.784 181.14 101.717C181.235 102.315 181.485 102.938 181.64 103.925C181.883 105.475 182.048 107.775 182.167 109.771C182.22 110.648 182.315 112.177 182.53 114.609C182.624 115.668 182.65 116.374 183.038 121.471C183.426 126.569 184.165 136.037 184.539 141.09C184.913 146.144 184.899 146.496 184.909 146.823C184.942 147.931 185.024 148.668 185.053 149.517C185.099 150.839 185.025 152.157 184.906 153.21C184.774 154.384 184.76 154.996 184.87 156.224C184.929 156.876 185.108 157.431 185.099 158.061C185.091 158.612 185.081 159.175 185.06 159.858C185.038 160.558 185.433 160.962 185.742 161.539C185.869 161.777 185.846 162.194 185.798 162.44C185.675 163.057 184.909 163.381 184.488 163.777C183.98 164.256 183.356 164.982 182.25 166.042C181.48 166.781 180.932 167.797 180.12 168.746C178.802 170.288 178.307 171.071 177.445 172.103C177.091 172.527 176.845 172.878 176.234 173.619C174.864 175.279 173.777 176.454 172.961 177.372C169.513 181.252 169.106 181.854 168.64 182.351C168.287 182.729 167.947 183.07 167.71 183.209C167.479 183.344 165.793 181.716 162.744 179.308C159.964 177.114 158.29 176.153 157.812 175.599C155.719 173.175 154.646 172.129 153.796 171.365C153.12 170.779 152.583 170.449 151.479 169.75C151.171 169.573 150.899 169.449 150.58 169.297" stroke="#F3EFE9" stroke-width="8" stroke-linecap="round"/>
<path d="M163.435 106.01C163.469 106.303 163.505 107.033 163.486 107.663C163.467 108.248 163.553 109.332 163.661 110.539C163.724 111.243 164.113 112.23 164.623 113.803C164.806 114.367 164.906 115.155 165.224 116.965C165.542 118.774 166.035 121.59 166.417 124.062C166.799 126.534 167.056 128.576 167.193 129.723C167.352 131.059 167.326 131.562 167.276 132.678C167.094 136.716 167.167 138.164 167.184 138.829C167.205 139.638 167.154 140.608 167.175 142.614C167.186 143.676 167.423 145.441 167.558 146.808C167.692 148.174 167.781 149.084 168.198 152.117C168.616 155.151 169.36 160.281 169.771 163.438C170.183 166.594 170.24 167.623 170.262 168.329C170.231 169.901 170.161 171.076 169.969 173.239C169.795 174.535 169.465 176.234 169.109 178.16" stroke="#F3EFE9" stroke-width="8" stroke-linecap="round"/>
<path d="M150.521 167.091C150.773 166.929 151.564 166.427 153.686 164.988C155.031 164.076 157.347 162.417 158.849 161.234C160.35 160.051 160.95 159.378 162.356 158.214C163.762 157.051 165.957 155.418 168.401 153.567" stroke="#F3EFE9" stroke-width="8" stroke-linecap="round"/>
<path d="M186.58 161.639C186.3 161.512 185.687 161.227 183.329 159.826C181.55 158.769 180.131 158.331 179.446 158.02C178.378 157.536 177.216 156.808 176.189 156.269C175.193 155.748 174.595 155.799 174.101 155.585C173.684 155.403 173.064 155.161 172.65 154.943C172.565 154.898 172.469 154.857 172.34 154.794C172.21 154.73 172.049 154.644 171.761 154.495" stroke="#F3EFE9" stroke-width="8" stroke-linecap="round"/>
<path d="M255.551 97.6886C255.551 95.6406 256.319 94.1686 257.855 93.2726C259.455 92.3126 261.631 91.7366 264.383 91.5446C268.735 91.0326 272.191 90.7126 274.751 90.5846C277.311 90.3926 279.679 90.2966 281.855 90.2966C295.231 90.2966 305.343 93.2726 312.191 99.2246C319.039 105.177 322.303 114.777 321.983 128.025C321.599 134.105 319.935 139.385 316.991 143.865C314.111 148.345 310.335 152.057 305.663 155.001C301.055 157.945 295.967 160.153 290.399 161.625C284.831 163.033 279.231 163.737 273.599 163.737C271.679 163.737 269.695 163.673 267.647 163.545C265.663 163.417 263.839 163.257 262.175 163.065C260.511 162.873 259.199 162.681 258.239 162.489C256.255 162.105 254.911 161.337 254.207 160.185C253.503 158.969 253.151 157.753 253.151 156.537C253.151 155.001 253.503 153.689 254.207 152.601C254.975 151.513 256.127 151.001 257.663 151.065C258.175 151.129 258.655 151.193 259.103 151.257C259.615 151.321 260.095 151.417 260.543 151.545C260.607 150.393 260.639 149.305 260.639 148.281C260.703 147.257 260.735 146.233 260.735 145.209C260.799 144.185 260.831 143.193 260.831 142.233C260.831 140.313 260.767 138.073 260.639 135.513C260.575 132.953 260.447 130.233 260.255 127.353C260.127 124.473 259.999 121.561 259.871 118.617C259.743 115.673 259.679 112.921 259.679 110.361C259.679 107.737 259.743 105.465 259.871 103.545C258.463 103.609 257.375 103.097 256.607 102.009C255.903 100.921 255.551 99.4806 255.551 97.6886ZM273.887 140.793C273.887 142.009 273.855 143.225 273.791 144.441C273.791 145.657 273.759 146.873 273.695 148.089C273.695 149.305 273.663 150.585 273.599 151.929C276.991 152.057 280.351 151.833 283.679 151.257C287.007 150.681 290.143 149.721 293.087 148.377C296.031 147.033 298.623 145.305 300.863 143.193C303.103 141.081 304.895 138.553 306.239 135.609C307.583 132.665 308.255 129.337 308.255 125.625C308.255 119.801 307.231 115.161 305.183 111.705C303.135 108.185 300.127 105.689 296.159 104.217C292.255 102.745 287.455 102.009 281.759 102.009C280.799 102.009 279.839 102.041 278.879 102.105C277.919 102.105 276.959 102.137 275.999 102.201C275.103 102.265 274.143 102.361 273.119 102.489C272.863 106.201 272.735 109.337 272.735 111.897C272.735 114.393 272.767 116.633 272.831 118.617C272.959 120.601 273.087 122.585 273.215 124.569C273.407 126.553 273.567 128.825 273.695 131.385C273.823 133.945 273.887 137.081 273.887 140.793ZM376.875 165.369C375.467 165.369 374.123 165.049 372.843 164.409C371.627 163.833 370.475 162.745 369.387 161.145C368.363 159.545 367.467 157.209 366.699 154.137C364.779 157.401 362.475 159.929 359.787 161.721C357.163 163.449 354.155 164.313 350.763 164.313C346.731 164.313 343.243 163.257 340.299 161.145C337.355 159.033 335.083 156.217 333.483 152.697C331.883 149.113 331.083 145.145 331.083 140.793C331.083 137.145 331.691 133.529 332.907 129.945C334.123 126.361 335.851 123.129 338.091 120.249C340.395 117.305 343.083 114.969 346.155 113.241C349.227 111.513 352.619 110.649 356.331 110.649C358.187 110.649 360.203 111.001 362.379 111.705C364.555 112.345 366.699 113.305 368.811 114.585C369.067 113.241 369.675 112.281 370.635 111.705C371.595 111.129 372.779 110.841 374.187 110.841C375.659 110.841 376.875 111.161 377.835 111.801C378.795 112.441 379.531 113.241 380.043 114.201C380.555 115.161 380.811 116.153 380.811 117.177C380.811 117.753 380.747 118.393 380.619 119.097C380.555 119.737 380.427 120.441 380.235 121.209C380.107 121.913 379.915 122.745 379.659 123.705C379.467 125.113 379.211 127.033 378.891 129.465C378.571 131.897 378.315 134.425 378.123 137.049C377.931 139.673 377.835 141.945 377.835 143.865C377.835 145.401 377.835 146.873 377.835 148.281C377.899 149.625 377.995 150.873 378.123 152.025C378.315 153.113 378.571 154.073 378.891 154.905C379.915 154.329 380.747 153.753 381.387 153.177C382.091 152.601 382.667 152.089 383.115 151.641C383.755 150.937 384.331 150.489 384.843 150.297C385.355 150.041 385.899 149.913 386.475 149.913C387.755 149.913 388.779 150.329 389.547 151.161C390.315 151.929 390.699 152.921 390.699 154.137C390.699 154.713 390.603 155.321 390.411 155.961C390.219 156.601 389.963 157.145 389.643 157.593C387.787 160.217 385.707 162.169 383.403 163.449C381.163 164.729 378.987 165.369 376.875 165.369ZM353.259 153.465C354.987 153.465 356.555 152.793 357.963 151.449C359.435 150.041 360.747 148.057 361.899 145.497C363.115 142.873 364.139 139.705 364.971 135.993L366.603 125.049C364.811 123.513 363.211 122.425 361.803 121.785C360.395 121.145 358.859 120.825 357.195 120.825C355.851 120.825 354.443 121.241 352.971 122.073C351.563 122.841 350.219 124.057 348.939 125.721C347.723 127.385 346.699 129.497 345.867 132.057C345.099 134.617 344.715 137.657 344.715 141.177C344.715 143.289 345.003 145.305 345.579 147.225C346.155 149.081 347.051 150.585 348.267 151.737C349.547 152.889 351.211 153.465 353.259 153.465ZM402.339 104.121C402.531 102.137 403.235 100.761 404.451 99.9926C405.667 99.1606 407.139 98.7446 408.867 98.7446C410.019 98.7446 411.139 98.9366 412.227 99.3206C413.315 99.6406 414.211 100.185 414.915 100.953C415.619 101.721 415.939 102.777 415.875 104.121C415.619 109.497 415.171 115.225 414.531 121.305C413.955 127.321 413.667 133.593 413.667 140.121C413.667 143.449 413.795 146.009 414.051 147.801C414.307 149.593 414.659 150.841 415.107 151.545C415.555 152.185 416.003 152.505 416.451 152.505C417.603 152.505 418.531 152.121 419.235 151.353C419.939 150.585 420.547 149.753 421.059 148.857C421.571 148.025 422.211 147.321 422.979 146.745C423.811 146.169 424.771 145.881 425.859 145.881C427.139 145.881 428.355 146.361 429.507 147.321C430.723 148.281 431.331 149.657 431.331 151.449C431.331 152.409 431.011 153.593 430.371 155.001C429.731 156.345 428.707 157.689 427.299 159.033C425.955 160.313 424.227 161.401 422.115 162.297C420.003 163.193 417.475 163.641 414.531 163.641C411.267 163.641 408.675 162.969 406.755 161.625C404.835 160.281 403.363 158.457 402.339 156.153C401.379 153.785 400.739 151.161 400.419 148.281C400.163 145.337 400.035 142.297 400.035 139.161C400.035 135.449 400.163 131.577 400.419 127.545C400.675 123.513 400.995 119.481 401.379 115.449C401.763 111.417 402.083 107.641 402.339 104.121ZM397.443 123.033C395.971 123.033 394.787 122.425 393.891 121.209C393.059 119.929 392.643 118.585 392.643 117.177C392.707 115.833 393.219 114.777 394.179 114.009C395.139 113.177 396.515 112.601 398.307 112.281C400.163 111.961 402.339 111.801 404.835 111.801C407.779 111.801 410.691 111.865 413.571 111.993C416.451 112.057 418.979 112.185 421.155 112.377C423.395 112.569 425.027 112.761 426.051 112.953C427.587 113.273 428.611 113.849 429.123 114.681C429.635 115.449 429.891 116.345 429.891 117.369C429.891 118.905 429.507 120.313 428.739 121.593C428.035 122.873 426.915 123.513 425.379 123.513C424.355 123.513 422.691 123.353 420.387 123.033C418.083 122.713 414.691 122.553 410.211 122.553C408.035 122.553 406.275 122.585 404.931 122.649C403.587 122.713 402.371 122.809 401.283 122.937C400.195 123.001 398.915 123.033 397.443 123.033ZM437.677 140.793C437.677 137.017 438.285 133.369 439.501 129.849C440.781 126.329 442.541 123.193 444.781 120.441C447.021 117.689 449.645 115.513 452.653 113.913C455.661 112.249 458.957 111.417 462.541 111.417C464.269 111.417 466.061 111.705 467.917 112.281C469.837 112.793 471.789 113.753 473.773 115.161C474.093 113.625 474.733 112.569 475.693 111.993C476.717 111.417 477.837 111.129 479.053 111.129C481.101 111.129 482.701 111.705 483.853 112.857C485.005 113.945 485.581 115.545 485.581 117.657C485.581 118.617 485.453 120.057 485.197 121.977C484.941 123.897 484.621 126.009 484.237 128.313C483.853 130.553 483.469 132.729 483.085 134.841C482.701 136.889 482.381 138.521 482.125 139.737C481.933 141.657 481.837 143.609 481.837 145.593C481.837 147.065 481.965 148.505 482.221 149.913C482.477 151.321 482.861 152.473 483.373 153.369C483.885 154.201 484.493 154.617 485.197 154.617C486.029 154.617 486.637 154.425 487.021 154.041C487.469 153.657 487.821 153.177 488.077 152.601C488.333 152.025 488.621 151.449 488.941 150.873C489.325 150.105 489.869 149.465 490.573 148.953C491.277 148.377 492.173 148.089 493.261 148.089C494.413 148.089 495.469 148.441 496.429 149.145C497.389 149.849 497.869 151.001 497.869 152.601C497.869 153.497 497.677 154.553 497.293 155.769C496.909 156.921 496.269 158.041 495.373 159.129C494.541 160.153 493.549 161.081 492.397 161.913C491.245 162.681 489.933 163.321 488.461 163.833C486.989 164.345 485.325 164.601 483.469 164.601C481.229 164.601 479.373 164.185 477.901 163.353C476.429 162.521 475.213 161.401 474.253 159.993C473.357 158.585 472.557 157.017 471.853 155.289C470.189 157.465 467.981 159.353 465.229 160.953C462.541 162.553 459.501 163.353 456.109 163.353C452.973 163.353 450.253 162.681 447.949 161.337C445.645 159.993 443.725 158.233 442.189 156.057C440.653 153.881 439.501 151.481 438.733 148.857C438.029 146.169 437.677 143.481 437.677 140.793ZM451.309 140.505C451.309 142.233 451.501 143.833 451.885 145.305C452.269 146.713 452.813 147.961 453.517 149.049C454.221 150.073 455.053 150.873 456.013 151.449C456.973 151.961 457.997 152.217 459.085 152.217C461.069 152.217 462.733 151.609 464.077 150.393C465.485 149.113 466.637 147.321 467.533 145.017C468.429 142.649 469.197 139.769 469.837 136.377C470.541 132.985 471.149 129.177 471.661 124.953C470.445 123.929 469.197 123.161 467.917 122.649C466.701 122.073 465.389 121.785 463.981 121.785C462.381 121.785 460.909 122.137 459.565 122.841C458.221 123.545 457.037 124.505 456.013 125.721C454.989 126.937 454.125 128.345 453.421 129.945C452.717 131.545 452.173 133.241 451.789 135.033C451.469 136.825 451.309 138.649 451.309 140.505ZM542.936 160.761C542.104 162.361 541.048 163.385 539.768 163.833C538.488 164.345 536.92 164.601 535.064 164.601C533.336 164.601 531.864 164.121 530.648 163.161C529.496 162.201 528.92 161.081 528.92 159.801C528.92 159.033 529.112 158.329 529.496 157.689C530.712 155.065 532.152 151.865 533.816 148.089C535.48 144.249 537.24 140.057 539.096 135.513C541.016 130.969 542.936 126.265 544.856 121.401C546.84 116.473 548.76 111.609 550.616 106.809C552.536 101.945 554.296 97.3366 555.896 92.9846C556.472 91.3846 557.24 90.2006 558.2 89.4326C559.16 88.6006 560.184 88.0566 561.272 87.8006C562.36 87.4806 563.384 87.3206 564.344 87.3206C565.56 87.3206 566.744 87.4806 567.896 87.8006C569.048 88.0566 570.104 88.6326 571.064 89.5286C572.024 90.3606 572.76 91.6726 573.272 93.4646C574.36 97.0486 575.768 101.145 577.496 105.753C579.224 110.297 581.144 115.033 583.256 119.961C585.368 124.825 587.544 129.625 589.784 134.361C592.024 139.097 594.168 143.513 596.216 147.609C598.328 151.705 600.184 155.129 601.784 157.881C602.104 158.457 602.296 158.969 602.36 159.417C602.488 159.801 602.552 160.153 602.552 160.473C602.552 161.561 602.008 162.681 600.92 163.833C599.832 164.985 598.328 165.561 596.408 165.561C594.424 165.561 592.792 165.273 591.512 164.697C590.296 164.185 589.208 163.065 588.248 161.337C586.776 158.841 585.24 155.897 583.64 152.505C582.04 149.113 580.376 145.401 578.648 141.369C576.984 137.337 575.32 133.209 573.656 128.985C571.992 124.697 570.328 120.473 568.664 116.313C567.064 112.089 565.56 108.089 564.152 104.313C562.36 108.793 560.6 113.529 558.872 118.521C557.144 123.513 555.416 128.505 553.688 133.497C551.96 138.489 550.2 143.321 548.408 147.993C546.616 152.601 544.792 156.857 542.936 160.761ZM549.56 143.673C548.728 143.673 547.928 143.449 547.16 143.001C546.392 142.489 545.752 141.785 545.24 140.889C544.728 139.993 544.472 139.001 544.472 137.913C544.472 135.929 545.016 134.393 546.104 133.305C547.192 132.153 548.344 131.577 549.56 131.577C555.128 131.577 559.928 131.545 563.96 131.481C568.056 131.353 571.704 131.225 574.904 131.097C578.104 130.969 581.208 130.809 584.216 130.617C585.304 130.553 586.328 131.097 587.288 132.249C588.312 133.337 588.824 134.905 588.824 136.953C588.824 139.129 588.216 140.633 587 141.465C585.848 142.233 584.664 142.681 583.448 142.809C582.872 142.873 581.368 142.969 578.936 143.097C576.504 143.161 573.56 143.257 570.104 143.385C566.712 143.449 563.192 143.513 559.544 143.577C555.896 143.641 552.568 143.673 549.56 143.673ZM610.617 139.929C610.617 132.057 610.713 124.185 610.905 116.313C611.097 108.441 611.705 100.601 612.729 92.7926C613.113 89.7846 613.785 87.7046 614.745 86.5526C615.705 85.4006 617.433 84.8246 619.929 84.8246C621.593 84.8246 622.969 85.3366 624.057 86.3606C625.209 87.3206 625.657 88.8246 625.401 90.8726C624.761 96.5686 624.249 101.657 623.865 106.137C623.545 110.617 623.321 114.713 623.193 118.425C623.065 122.073 623.001 125.561 623.001 128.889C623.001 132.217 623.001 135.577 623.001 138.969C623.001 142.873 623.065 146.745 623.193 150.585C623.385 154.361 623.609 157.849 623.865 161.049C623.929 162.329 623.641 163.353 623.001 164.121C622.425 164.953 621.657 165.529 620.697 165.849C619.737 166.233 618.745 166.425 617.721 166.425C615.865 166.425 614.457 166.041 613.497 165.273C612.537 164.569 611.897 163.353 611.577 161.625C611.257 160.345 611.033 158.617 610.905 156.441C610.777 154.265 610.681 152.025 610.617 149.721C610.617 147.417 610.617 145.369 610.617 143.577C610.617 141.721 610.617 140.505 610.617 139.929ZM672.854 115.065C674.71 116.025 676.054 117.145 676.886 118.425C677.782 119.641 678.23 120.825 678.23 121.977C678.23 123.065 677.878 124.025 677.174 124.857C676.534 125.689 675.766 126.329 674.87 126.777C673.974 127.225 673.11 127.449 672.278 127.449C671.446 127.449 670.678 127.193 669.974 126.681C669.27 126.169 668.534 125.593 667.766 124.953C666.998 124.249 666.102 123.641 665.078 123.129C664.054 122.617 662.806 122.361 661.334 122.361C659.67 122.361 658.038 122.745 656.438 123.513C654.902 124.281 653.494 125.433 652.214 126.969C650.998 128.441 650.038 130.329 649.334 132.633C648.63 134.873 648.278 137.529 648.278 140.601C648.278 142.201 648.47 143.737 648.854 145.209C649.302 146.681 649.942 148.025 650.774 149.241C651.67 150.393 652.726 151.321 653.942 152.025C655.222 152.665 656.694 152.985 658.358 152.985C659.958 152.985 661.366 152.793 662.582 152.409C663.798 151.961 664.95 151.353 666.038 150.585C667.19 149.753 668.47 148.761 669.878 147.609C671.606 146.137 673.014 145.401 674.102 145.401C674.934 145.401 675.734 145.657 676.502 146.169C677.27 146.681 677.91 147.385 678.422 148.281C678.934 149.113 679.19 150.105 679.19 151.257C679.19 152.473 678.71 153.657 677.75 154.809C676.854 155.961 675.702 157.049 674.294 158.073C671.99 159.929 669.462 161.369 666.71 162.393C664.022 163.353 661.27 163.833 658.454 163.833C653.782 163.833 649.622 162.841 645.974 160.857C642.39 158.809 639.574 156.057 637.526 152.601C635.478 149.145 634.454 145.305 634.454 141.081C634.454 137.049 635.062 133.273 636.278 129.753C637.494 126.169 639.222 123.033 641.462 120.345C643.702 117.657 646.422 115.545 649.622 114.009C652.886 112.473 656.534 111.705 660.566 111.705C662.55 111.705 664.63 111.993 666.806 112.569C668.982 113.081 670.998 113.913 672.854 115.065ZM715.02 123.801C713.484 123.801 712.012 124.377 710.604 125.529C709.196 126.681 707.852 128.153 706.572 129.945C705.356 131.737 704.3 133.657 703.404 135.705C702.572 137.753 701.964 139.673 701.58 141.465L701.196 158.457C701.196 159.993 700.844 161.209 700.14 162.105C699.436 162.937 698.508 163.513 697.356 163.833C696.268 164.153 695.052 164.313 693.708 164.313C691.852 164.313 690.444 163.961 689.484 163.257C688.524 162.489 688.076 161.081 688.14 159.033L689.868 90.2006C689.932 88.4086 690.508 87.1606 691.596 86.4566C692.684 85.7526 694.156 85.4006 696.012 85.4006C696.908 85.4006 697.868 85.5606 698.892 85.8806C699.916 86.2006 700.78 86.7126 701.484 87.4166C702.188 88.1206 702.508 89.1126 702.444 90.3926L701.58 123.033C702.924 120.665 704.46 118.649 706.188 116.985C707.916 115.257 709.804 113.913 711.852 112.953C713.964 111.993 716.172 111.513 718.476 111.513C721.74 111.513 724.396 112.505 726.444 114.489C728.556 116.409 730.124 119.065 731.148 122.457C732.172 125.849 732.684 129.785 732.684 134.265C732.684 136.185 732.524 138.393 732.204 140.889C731.948 143.321 731.628 145.817 731.244 148.377C730.86 150.873 730.444 153.177 729.996 155.289C729.548 157.337 729.196 158.905 728.94 159.993C728.556 161.273 727.948 162.265 727.116 162.969C726.348 163.609 725.452 164.057 724.428 164.313C723.468 164.569 722.508 164.697 721.548 164.697C719.948 164.697 718.572 164.217 717.42 163.257C716.332 162.297 716.044 160.697 716.556 158.457C717.324 155.449 717.964 152.441 718.476 149.433C718.988 146.361 719.34 143.449 719.532 140.697C719.788 137.945 719.916 135.513 719.916 133.401C719.916 130.905 719.692 128.985 719.244 127.641C718.796 126.233 718.188 125.241 717.42 124.665C716.716 124.089 715.916 123.801 715.02 123.801ZM766.541 163.833C762.445 163.833 758.893 163.129 755.885 161.721C752.877 160.249 750.381 158.329 748.397 155.961C746.477 153.529 745.037 150.809 744.077 147.801C743.117 144.793 742.637 141.753 742.637 138.681C742.637 135.353 743.277 132.057 744.557 128.793C745.901 125.529 747.757 122.553 750.125 119.865C752.493 117.113 755.277 114.937 758.477 113.337C761.741 111.673 765.293 110.841 769.133 110.841C772.397 110.841 775.181 111.417 777.485 112.569C779.789 113.657 781.549 115.193 782.765 117.177C783.981 119.161 784.589 121.529 784.589 124.281C784.589 127.161 783.917 129.785 782.573 132.153C781.293 134.457 779.469 136.377 777.101 137.913C774.093 139.961 770.829 141.433 767.309 142.329C763.853 143.225 760.173 143.801 756.269 144.057C756.845 145.529 757.613 146.969 758.573 148.377C759.533 149.721 760.749 150.841 762.221 151.737C763.757 152.569 765.549 152.985 767.597 152.985C769.901 152.985 772.013 152.409 773.933 151.257C775.853 150.041 777.549 148.633 779.021 147.033C779.661 146.329 780.237 145.881 780.749 145.689C781.325 145.433 781.837 145.305 782.285 145.305C783.117 145.305 783.917 145.593 784.685 146.169C785.517 146.681 786.221 147.353 786.797 148.185C787.437 148.953 787.821 149.785 787.949 150.681C788.077 151.449 787.981 152.217 787.661 152.985C787.341 153.689 786.957 154.265 786.509 154.713C784.141 157.273 781.229 159.449 777.773 161.241C774.381 162.969 770.637 163.833 766.541 163.833ZM755.693 134.457C757.741 134.329 759.501 134.169 760.973 133.977C762.445 133.721 764.109 133.209 765.965 132.441C767.693 131.737 769.197 130.713 770.477 129.369C771.757 128.025 772.397 126.425 772.397 124.569C772.397 123.865 772.237 123.225 771.917 122.649C771.597 122.009 771.085 121.497 770.381 121.113C769.741 120.729 768.909 120.537 767.885 120.537C766.349 120.537 764.877 120.985 763.469 121.881C762.125 122.777 760.909 123.929 759.821 125.337C758.733 126.745 757.837 128.249 757.133 129.849C756.429 131.449 755.949 132.985 755.693 134.457ZM799.859 114.489C800.115 113.273 800.819 112.345 801.971 111.705C803.187 111.001 804.499 110.649 805.907 110.649C807.571 110.649 808.915 111.065 809.939 111.897C811.027 112.729 811.571 113.753 811.571 114.969C811.571 115.609 811.475 116.377 811.283 117.273C811.155 118.105 810.995 119.257 810.803 120.729C812.275 118.553 813.811 116.729 815.411 115.257C817.075 113.785 818.835 112.697 820.691 111.993C822.611 111.225 824.659 110.841 826.835 110.841C828.563 110.841 830.291 111.161 832.019 111.801C833.747 112.441 835.315 113.497 836.723 114.969C838.195 116.377 839.347 118.361 840.179 120.921C841.587 118.809 843.155 116.985 844.883 115.449C846.611 113.913 848.499 112.697 850.547 111.801C852.659 110.905 854.899 110.457 857.267 110.457C860.659 110.457 863.411 111.161 865.523 112.569C867.699 113.977 869.363 115.865 870.515 118.233C871.731 120.601 872.563 123.321 873.011 126.393C873.459 129.401 873.683 132.537 873.683 135.801C873.683 137.913 873.619 139.833 873.491 141.561C873.363 143.289 873.203 145.017 873.011 146.745C872.819 148.473 872.595 150.297 872.339 152.217C872.147 154.137 871.923 156.345 871.667 158.841C871.475 160.697 870.739 162.041 869.459 162.873C868.179 163.705 866.803 164.121 865.331 164.121C862.707 164.121 860.947 163.673 860.051 162.777C859.155 161.881 858.707 160.665 858.707 159.129C858.707 158.361 858.803 157.241 858.995 155.769C859.187 154.297 859.411 152.601 859.667 150.681C859.987 148.697 860.243 146.489 860.435 144.057C860.627 141.625 860.723 139.033 860.723 136.281C860.723 131.545 860.243 128.089 859.283 125.913C858.323 123.673 856.659 122.553 854.291 122.553C853.075 122.553 851.827 122.937 850.547 123.705C849.331 124.473 848.147 125.497 846.995 126.777C845.843 128.057 844.851 129.497 844.019 131.097C843.187 132.697 842.547 134.329 842.099 135.993C842.099 137.209 842.067 138.265 842.003 139.161C841.939 140.057 841.875 140.921 841.811 141.753C841.811 142.521 841.779 143.353 841.715 144.249C841.651 146.105 841.555 147.929 841.427 149.721C841.299 151.513 841.171 153.241 841.043 154.905C840.979 156.505 840.947 158.073 840.947 159.609C840.883 161.465 840.307 162.777 839.219 163.545C838.195 164.313 836.531 164.697 834.227 164.697C832.051 164.697 830.419 164.313 829.331 163.545C828.243 162.713 827.731 161.305 827.795 159.321C827.859 156.825 827.987 154.297 828.179 151.737C828.371 149.113 828.563 146.425 828.755 143.673C828.947 140.921 829.043 138.073 829.043 135.129C829.043 130.649 828.627 127.449 827.795 125.529C827.027 123.609 825.715 122.649 823.859 122.649C822.451 122.649 820.979 123.161 819.443 124.185C817.971 125.145 816.531 126.489 815.123 128.217C813.779 129.945 812.595 131.897 811.571 134.073C811.443 137.273 811.315 140.473 811.187 143.673C811.059 146.873 810.931 149.849 810.803 152.601C810.675 155.289 810.547 157.625 810.419 159.609C810.355 161.465 809.779 162.777 808.691 163.545C807.667 164.313 806.163 164.697 804.179 164.697C801.811 164.697 800.019 164.313 798.803 163.545C797.651 162.713 797.107 161.305 797.171 159.321C797.363 155.481 797.523 151.417 797.651 147.129C797.779 142.777 797.939 138.393 798.131 133.977C798.259 130.649 798.451 127.353 798.707 124.089C798.963 120.761 799.347 117.561 799.859 114.489ZM887.774 115.161C888.094 113.625 888.702 112.601 889.598 112.089C890.494 111.513 891.902 111.225 893.822 111.225C894.398 111.225 895.07 111.353 895.838 111.609C896.606 111.801 897.342 112.121 898.046 112.569C898.814 112.953 899.422 113.497 899.87 114.201C900.382 114.841 900.638 115.609 900.638 116.505C900.638 117.657 900.446 119.065 900.062 120.729C899.678 122.393 899.262 124.505 898.814 127.065C898.43 129.625 898.238 132.857 898.238 136.761C898.238 140.089 898.462 142.969 898.91 145.401C899.358 147.833 900.03 149.721 900.926 151.065C901.886 152.345 903.102 152.985 904.574 152.985C905.982 152.985 907.326 152.505 908.606 151.545C909.95 150.521 911.198 149.209 912.35 147.609C913.502 146.009 914.462 144.377 915.23 142.713V138.393C915.23 135.385 915.294 132.441 915.422 129.561C915.614 126.617 915.87 123.897 916.19 121.401C916.574 118.905 917.086 116.825 917.726 115.161C918.238 113.753 918.974 112.665 919.934 111.897C920.894 111.129 922.11 110.745 923.582 110.745C925.502 110.745 926.942 111.065 927.902 111.705C928.862 112.281 929.47 113.113 929.726 114.201C930.046 115.289 930.206 116.569 930.206 118.041C930.206 121.945 929.982 126.073 929.534 130.425C929.15 134.713 928.382 138.841 927.23 142.809C927.294 144.153 927.326 145.529 927.326 146.937C927.39 148.345 927.454 149.753 927.518 151.161C927.582 152.569 927.614 153.977 927.614 155.385C927.614 159.929 927.294 164.345 926.654 168.633C926.078 172.921 924.99 176.793 923.39 180.249C921.79 183.705 919.518 186.425 916.574 188.409C913.694 190.457 909.982 191.481 905.438 191.481C900.83 191.481 896.734 190.521 893.15 188.601C889.63 186.681 887.006 184.249 885.278 181.305C884.958 180.665 884.734 180.089 884.606 179.577C884.542 179.129 884.51 178.745 884.51 178.425C884.51 177.337 884.862 176.345 885.566 175.449C886.27 174.553 887.102 173.817 888.062 173.241C889.086 172.729 890.014 172.473 890.846 172.473C891.742 172.473 892.51 172.697 893.15 173.145C893.79 173.593 894.43 174.265 895.07 175.161C896.35 176.953 897.886 178.265 899.678 179.097C901.47 179.929 903.262 180.345 905.054 180.345C907.55 180.345 909.47 179.545 910.814 177.945C912.222 176.345 913.246 173.785 913.886 170.265C914.59 166.745 915.07 162.137 915.326 156.441C913.79 158.809 911.998 160.825 909.95 162.489C907.966 164.153 905.566 164.985 902.75 164.985C899.422 164.985 896.638 164.249 894.398 162.777C892.158 161.241 890.366 159.193 889.022 156.633C887.678 154.009 886.718 151.033 886.142 147.705C885.566 144.377 885.278 140.889 885.278 137.241C885.278 134.745 885.406 132.153 885.662 129.465C885.918 126.777 886.238 124.217 886.622 121.785C887.006 119.289 887.39 117.081 887.774 115.161Z" fill="#F3EFE9"/>
</svg>
